<?xml version="1.0" encoding="UTF-8" standalone="no"?>
<!-- Generator: Adobe Illustrator 15.0.1, SVG Export Plug-In  -->

<svg
   xmlns:dc="http://purl.org/dc/elements/1.1/"
   xmlns:cc="http://creativecommons.org/ns#"
   xmlns:rdf="http://www.w3.org/1999/02/22-rdf-syntax-ns#"
   xmlns:svg="http://www.w3.org/2000/svg"
   xmlns="http://www.w3.org/2000/svg"
   xmlns:sodipodi="http://sodipodi.sourceforge.net/DTD/sodipodi-0.dtd"
   xmlns:inkscape="http://www.inkscape.org/namespaces/inkscape"
   version="1.1"
   x="0px"
   y="0px"
   width="462px"
   height="434px"
   viewBox="-0.81 -0.39 462 434"
   overflow="visible"
   xml:space="preserve"
   id="svg2"
   inkscape:version="0.91 r13725"
   sodipodi:docname="57.svg"><metadata
     id="metadata20"><rdf:RDF><cc:Work
         rdf:about=""><dc:format>image/svg+xml</dc:format><dc:type
           rdf:resource="http://purl.org/dc/dcmitype/StillImage" /></cc:Work></rdf:RDF></metadata><sodipodi:namedview
     pagecolor="#ffffff"
     bordercolor="#666666"
     borderopacity="1"
     objecttolerance="10"
     gridtolerance="10"
     guidetolerance="10"
     inkscape:pageopacity="0"
     inkscape:pageshadow="2"
     inkscape:window-width="1065"
     inkscape:window-height="786"
     id="namedview18"
     showgrid="false"
     inkscape:zoom="0.5437788"
     inkscape:cx="231"
     inkscape:cy="217"
     inkscape:window-x="0"
     inkscape:window-y="31"
     inkscape:window-maximized="0"
     inkscape:current-layer="svg2" /><defs
     id="defs4" /><path
     fill="#F15A24"
     d="M392.95,112.74c2.8,0.93,3.38,5.53,5.53,6.73c1.17-0.96-1.03-3.66,0.46-4.38c2.27-1.09-0.41,5.6,1.5,3.69  c0.84-0.84,1.9-5.02,2.9-5.8c1.27-0.98,3.44,1.09,2.11-0.73c-2.35-3.21-10.47-3.13-15.12,0.13  C389.14,113.21,391.52,112.26,392.95,112.74"
     id="path6" /><path
     fill="#FFFF00"
     d="M369.99,86.43c-0.68-0.23-1.36-0.42-2.04-0.58c0.26,0.42,0.48,0.93,0.68,1.49c0.93,0.26,1.63,1.5,1.63,3  c0,1.09-0.38,2.05-0.94,2.59c-0.22,3.76-1.69,6.67-3.47,6.67c-1.94,0-3.5-3.42-3.5-7.64c0-2.88,0.73-5.39,1.81-6.69  c-5.19-0.39-9.94,0.85-12.86,2.36c-0.02,0.01-0.04,0.02-0.06,0.03c-0.61,0.32-1.14,0.66-1.57,0.99c-0.02,0.02-0.05,0.04-0.07,0.05  c-0.2,0.16-0.38,0.31-0.53,0.47c-0.03,0.02-0.05,0.05-0.07,0.08c-0.15,0.16-0.28,0.31-0.38,0.46c0,0,0,0,0,0.01  c-0.1,0.15-0.16,0.29-0.21,0.43c-0.01,0.03-0.02,0.05-0.03,0.08c-0.04,0.13-0.05,0.26-0.04,0.39c0,0.02,0.01,0.05,0.01,0.07  c0.02,0.13,0.07,0.25,0.15,0.36c8.19,11.17,23.05,8.12,34.78,15.6C375.4,97.26,379.48,89.6,369.99,86.43"
     id="path8" /><path
     fill="#FFFF00"
     d="M417.87,88.28c-0.02-0.04-0.05-0.09-0.09-0.16c0-0.01-0.01-0.02-0.02-0.02c-0.04-0.07-0.09-0.15-0.14-0.24  c0,0,0-0.01-0.01-0.01c-0.06-0.09-0.13-0.2-0.21-0.31c-0.01-0.01-0.02-0.03-0.03-0.04c-0.16-0.24-0.36-0.51-0.59-0.79l-0.02-0.03  c-0.12-0.14-0.24-0.29-0.38-0.44c-0.01-0.01-0.02-0.02-0.02-0.03c-0.27-0.3-0.58-0.6-0.92-0.89c-0.01-0.01-0.03-0.02-0.04-0.03  c-0.35-0.29-0.73-0.57-1.14-0.8c0,0-0.01,0-0.01-0.01c-0.2-0.11-0.41-0.22-0.63-0.31c-0.02-0.01-0.03-0.02-0.05-0.02  c-0.44-0.18-0.9-0.31-1.39-0.38c-0.02,0-0.04-0.01-0.06-0.01c-0.24-0.03-0.5-0.04-0.75-0.04c-0.02,0-0.03,0-0.05,0  c-0.26,0.01-0.53,0.04-0.81,0.09h0c0.25,0.26,0.49,0.56,0.72,0.9c0,0,0,0,0,0c0.93-0.27,2.02,0.67,2.44,2.11  c0.34,1.17,0.13,2.29-0.46,2.82c0.5,2.74,0.01,5.03-1.3,5.43c-1.55,0.48-3.66-1.88-4.71-5.27c-0.43-1.38-0.61-2.72-0.57-3.85  c0,0,0,0,0,0c-3.98,3.68-2.07,8.6-2.38,14.92c0,0.06,0,0.12-0.01,0.18c-0.02,0.37-0.05,0.74-0.09,1.12  c-0.01,0.1-0.01,0.21-0.03,0.31c-0.05,0.48-0.12,0.97-0.21,1.47c0.1,0.38,0.33,0.05,0.4-0.13c2.89-7.27,13.61-3.66,13.61-15.47  c0,0-0.01-0.02-0.03-0.05C417.88,88.29,417.87,88.29,417.87,88.28"
     id="path10" /><path
     fill="#FFFFFF"
     d="M413.67,86.81c-0.42-1.44-1.51-2.38-2.44-2.1c0,0,0,0,0,0c-0.93,0.28-1.34,1.66-0.92,3.09  c0.42,1.44,1.52,2.38,2.45,2.11c0.17-0.05,0.32-0.15,0.46-0.27C413.79,89.1,414.01,87.97,413.67,86.81"
     id="path12" /><path
     fill="#FFFFFF"
     d="M370.26,90.34c0-1.5-0.7-2.74-1.63-3c-0.11-0.03-0.23-0.05-0.35-0.05c-1.09,0-1.98,1.37-1.98,3.05  c0,1.69,0.89,3.06,1.98,3.06c0.38,0,0.74-0.18,1.04-0.47C369.89,92.39,370.26,91.44,370.26,90.34"
     id="path14" /><path
     d="M119.09,381.23c0.72,4.3-6.57,2.15-14.45,3.18c-10.1,1.33-20.77,7.48-27.86-9.87c-3.61-8.83-22.08-32.15-23.4-40.11  c-1.32-7.96-7.32-8.28-9.23-17.19c-1.91-8.91,7-23.4,11.78-29.13c4.77-5.73,11.3-25.95,12.89-33.9h2.55c0,0,10.7,21.57,4.97,30.32  c2.78,1.16,4.58-0.4,8.72-2.94c1.43,5.89,4.78,25.87,4.78,25.87c-3.58,4.06-10.93,16-9.31,20.77c1.62,4.78,6.45,29.61,13.85,33.91  c7.4,4.3,6.09-0.81,12.77,1.19C107.15,363.33,118.37,376.94,119.09,381.23 M427.77,128.78c1.91,2.86,5.41,6.53,5.41,6.53  s-6.37-0.96-8.28,2.39c-1.91,3.34-7.41,4.3-6.22,9.07c-0.31,4.49-0.28,9.64-0.29,15.36c-0.01,1.79,5.03,14.37,5,16.16  c-0.03,1.79-5.11-7.22-5.17-5.44c-0.12,3.46-0.32,7.08-0.67,10.83c-0.59,6.36-1.04,36.1-2.29,42.36c-1.25,6.26-3.41-7.25-5.17-1.11  c-1.89,6.59-4.13,9.54-6.57,15.63c-2.36,5.89-11.27,30.6-14.44,36.1c-3.17,5.5-1.04-8.38-4.58-3.11  c-7.51,11.2-15.67,21.82-25.35,26.98c-14.33,7.64-33.67,14.33-33.67,14.33c-0.96,7.32-1.19,19.9,1.03,32  c2.23,12.1-1.59,23.88,0.64,31.84s1.75,17.84,5.25,22.84c9.19,13.12,9.47,3.21,17.74,3.85s14.25,8.56,15.21,15.25  c0.96,6.68-6.68,7.4-10.51,7.4c0.64-2.86-4.78-11.14-7-8.28c1.59,3.25,3.9,5.73,3.9,8.28c0,2.55,0.56,4.14-6.13,3.82  s-9.14,1.27-18.46,1.27c-18.46,0-13.37-12.97-16.71-20.14c-3.34-7.16-19.58-30.56-20.77-33.67s-4.54-13.13-4.54-13.13  s-1.19,2.15-2.15,1.43c-0.24-7.88-9.79-26.03-11.22-32.23c-1.43-6.21-12.18-23.64-20.29-32.23c-11.46,4.3-25.07-0.24-25.07-0.24  c3.82-3.34,0.39-4.51,0.39-4.51s-22.22,5.74-27,5.18c4.32-3.01,3.25-4.98,3.25-4.98s-13.41-8.1-35.38,1.45  c-7.25,9.71-28.33,29.61-32.79,35.02c-4.46,5.41-5.09,7.96-2.23,11.14c2.87,3.18,16.87,27.7,20.69,28.65  c3.82,0.96,17.33-2.63,18.46,11.46c1.05,13.11-9.93,13.11-9.87,10.5c6.05-5.41-4.14-13.69-4.14-13.69s-4.22-1.55-3.82,0.95  c6.37,2.23,7.28,8.68,5.69,12.18c-1.59,3.5-5.37,1.19-14.92,2.15c-9.55,0.96-11.94-7.16-17.19-12.1  c-5.25-4.93-21.97-32.31-26.27-37.57c-4.3-5.25-11.46-5.73-8.12-16.24c3.34-10.5-6.68-56.35-6.68-56.35s0,2.87-6.69,6.21  c3.34-7.16-6.69-31.52-6.69-31.52s-5.73,2.39-8.12,0c3.82-7.16-3.82-22.44-3.82-22.44s-2.39,1.91-5.25,2.87  c-2.39-7.16,0-25.79,0-25.79s-0.48,3.34-3.34,3.82c-3.82-11.94,3.34-27.22,3.34-27.22s-2.87-0.48-5.25,1.91  c0-6.21,4.78-17.19,10.51-28.65c0.48-15.76,5.25-65.1,3.98-76.88c-1.27-11.78-9.63-48.96-28.57-41.55  c-7.32,2.87-8.04,12.26-8.99,17.35c-0.96,5.09,1.67,13.77-2.47,18.23c-0.72-1.55-3.58-2.33-3.58-2.33s-0.6,2.45-3.23,6.75  c-0.82-1.82-4.06-2.98-4.06-2.98L8.5,75.61l-1.63-4.42L3.4,68.29l-1.66-5.66c0,0-2.92-9.18-1.21-15.99  C8.77,13.9,22.03,8.44,22.03,8.44s2.23-1.11-2.23-2.71C22.03,3.82,34.92,4.3,34.92,4.3S34.49,0.04,31.9,0  c22.44,0,47.91,10.66,61.28,46.48c11.65,31.22,11.46,67.33,17.19,83.98c6.37-1.18,27.38,0,27.38,0s-6.37-2-8.28-3.91  c11.46-1.91,29.93-1.27,29.93-1.27s-4.46-0.64-5.1-2.55c15.28-1.91,42.66,2.55,53.48,6.9c10.82,4.35,35.66,9.02,35.66,9.02  s-1.28-3.18-4.46-5.73h17.83l-2.55-2.86c12.1-1.59,18.46,1.91,39.48,0l3.82-7h-2.23l5.69-9.53l-3.35,0.06l5.97-8.48l-4.78-0.48  l6.8-10.03l-1.43-2.11c0,0,2.87-1.27,7.32-9.87c-13.05-17.83-6.05-46.16-6.05-46.16l-3.5-1.91l9.55-0.64c0,0-0.64-1.27-2.87-1.91  c13.05-2.23,24.83,9.23,36.93,17.51c8.12-6.37,22.76-5.73,22.76-5.73l-5.07-6.47c0,0,5.71,1.46,8.58,5.28  c0.64-0.95,5.33-5.09,5.33-5.09s-1.25,3.19-1.03,5.65c5.09,1.27,9.23,2.23,16.87,5.41c6.81-10.19,25.15-19.74,36.61-21.65  c1.27,1.91,5.51,0.27,5.51,0.27l-1.69,3.23l1.53,0.96l-1.21,2.55c0,0-3.9,16.08-11.78,28.33c-3.62,5.63,0.76,16,0.76,16  c3.82,5.25,10.39,10.75,10.39,19.34c-1.91-0.96-5.73,0-5.73,0s6.21,8.6,5.73,14.33c-2.87-1.43-5.72,0-5.72,0s1.66,4.3,1.66,7.64  c10.03,8.12,30.32,9.55,31.76,15.76c-6.69-3.34-23.88-8.6-29.61-10.5c4.77,4.78,11.94,6.21,14.33,10.5  c-6.13-3.27-12.95-7.23-15.99-8.31C429.09,126.81,428.05,128.78,427.77,128.78 M392.95,112.74c2.8,0.93,3.38,5.53,5.53,6.73  c1.17-0.96-1.03-3.66,0.46-4.38c2.27-1.09-0.41,5.6,1.5,3.69c0.84-0.84,1.9-5.02,2.9-5.8c1.27-0.98,3.44,1.09,2.11-0.73  c-2.35-3.21-10.46-3.13-15.12,0.13C389.14,113.21,391.52,112.26,392.95,112.74 M383.28,106.65c-7.88-9.39-3.8-17.05-13.29-20.22  c-0.68-0.23-1.36-0.42-2.04-0.58c0.26,0.42,0.48,0.93,0.68,1.49c-0.11-0.03-0.23-0.05-0.35-0.05c-1.09,0-1.98,1.37-1.98,3.05  c0,1.69,0.89,3.06,1.98,3.06c0.38,0,0.74-0.18,1.04-0.47c-0.22,3.76-1.69,6.67-3.47,6.67c-1.94,0-3.5-3.42-3.5-7.64  c0-2.88,0.73-5.39,1.81-6.69c-5.19-0.39-9.94,0.85-12.86,2.36c-0.02,0.01-0.04,0.02-0.06,0.03c-0.61,0.32-1.14,0.65-1.57,0.99  c-0.02,0.02-0.05,0.04-0.07,0.05c-0.2,0.16-0.38,0.31-0.53,0.47c-0.03,0.03-0.05,0.05-0.07,0.08c-0.15,0.16-0.28,0.31-0.38,0.46  c0,0,0,0,0,0.01c-0.1,0.15-0.16,0.29-0.21,0.43c-0.01,0.03-0.02,0.05-0.03,0.08c-0.04,0.13-0.05,0.26-0.04,0.39  c0,0.02,0.01,0.05,0.01,0.07c0.02,0.13,0.07,0.25,0.15,0.36C356.7,102.23,371.55,99.17,383.28,106.65 M408.35,138.8  c-1.11-3.5-7.64-9.55-7.64-9.55l-1.43-7.64c0.32,3.82-8.28,13.53-16.55,15.6c3.74,0.48,14.66-4.46,15.61-6.69  C400.08,131,406.6,135.78,408.35,138.8 M417.9,88.34c0,0-0.01-0.02-0.03-0.05c0-0.01,0-0.01-0.01-0.02  c-0.02-0.04-0.05-0.09-0.09-0.16c0-0.01-0.01-0.02-0.01-0.02c-0.04-0.07-0.09-0.15-0.15-0.24c0,0,0-0.01-0.01-0.01  c-0.06-0.09-0.13-0.2-0.21-0.31c-0.01-0.01-0.02-0.03-0.03-0.04c-0.16-0.24-0.36-0.51-0.59-0.79c-0.01-0.01-0.02-0.02-0.02-0.03  c-0.12-0.14-0.24-0.29-0.38-0.44c-0.01-0.01-0.02-0.02-0.02-0.03c-0.27-0.3-0.58-0.6-0.92-0.89c-0.01-0.01-0.03-0.02-0.04-0.03  c-0.35-0.29-0.73-0.56-1.14-0.8c0,0-0.01,0-0.01-0.01c-0.2-0.11-0.41-0.22-0.63-0.31c-0.02-0.01-0.03-0.01-0.05-0.02  c-0.44-0.18-0.9-0.31-1.39-0.38c-0.02,0-0.04-0.01-0.06-0.01c-0.24-0.03-0.5-0.04-0.75-0.04c-0.02,0-0.03,0-0.05,0  c-0.26,0.01-0.53,0.04-0.81,0.09h0c0.25,0.26,0.49,0.56,0.72,0.9c-0.93,0.27-1.34,1.66-0.92,3.09c0.42,1.44,1.51,2.38,2.45,2.11  c0.17-0.05,0.32-0.15,0.46-0.27c0.5,2.74,0.01,5.03-1.3,5.43c-1.55,0.48-3.66-1.88-4.71-5.27c-0.43-1.38-0.61-2.72-0.57-3.85l0,0  c0,0,0,0,0,0c-3.98,3.68-2.07,8.6-2.38,14.92c0,0.06,0,0.12-0.01,0.18c-0.02,0.37-0.05,0.74-0.09,1.12  c-0.01,0.1-0.01,0.21-0.03,0.31c-0.05,0.48-0.12,0.97-0.21,1.47c0.1,0.38,0.33,0.05,0.4-0.13C407.18,96.55,417.9,100.16,417.9,88.34   M389.46,384.93c-7.79-4.05-10.54-6.13-13.63-13.15c-3.09-7.01-2.47-5.21,0.21-18.93c2.68-13.72,6.5-23.12,2.02-28.31  c-4.48-5.19-4-18.31-14.24-24.55c-2.11,2.64-35.82,16.7-35.82,16.7l-0.83,8.99c11.72,4.04,21.87,16.28,24.53,20.08  c2.66,3.8-0.63,7.62-1.52,13.99c-0.89,6.37-0.78,13.25,0.62,22.2c1.4,8.95-0.47,13.27,7.56,20.93c8.03,7.67,10.94,7.47,16.39,6.21  c5.3-1.23,10.38,0.47,12.26-2.87c1.88-3.34-1.54-16.22-3.36-17.61c4.12,2.6,5.79,6.64,6.23,10.93c0.11,1.1-0.51,4.5,0.6,4.14  C399.48,397.99,397.26,388.97,389.46,384.93"
     id="path16" /><path
     style="fill:#f9f9f9;fill-opacity:1"
     d="m 319.06875,430.20274 c -2.3457,-1.69036 -4.56434,-5.8225 -5.24682,-9.77212 -0.65039,-3.76383 -5.65176,-13.99063 -11.11415,-22.72621 -5.46239,-8.73557 -11.26287,-19.07985 -12.88995,-22.98728 -1.62708,-3.90744 -3.48597,-7.51819 -4.13087,-8.02391 -0.64491,-0.50572 -2.71046,-5.47097 -4.59012,-11.0339 -5.42528,-16.05625 -14.93508,-35.66518 -21.5565,-44.44894 l -6.09844,-8.08994 -11.58876,0.73791 c -9.75061,0.62088 -11.58873,0.26641 -11.58873,-2.23479 0,-3.5097 -2.17554,-3.65049 -14.74719,-0.95436 -8.24838,1.76896 -9.69845,1.62565 -11.7352,-1.15977 -3.07338,-4.20309 -18.16463,-5.47134 -27.89157,-2.34398 -5.66494,1.82136 -12.02352,7.20809 -26.20551,22.2002 -10.29909,10.88742 -18.72562,21.0821 -18.72562,22.65484 0,1.57273 4.75837,9.83629 10.57415,18.36344 9.34605,13.70325 11.22078,15.50395 16.14167,15.50406 8.33377,2.2e-4 13.74181,4.60078 13.74181,11.69001 0,5.6205 -2.67121,10.37793 -5.82703,10.37793 -0.77741,0 -0.93468,-1.24769 -0.3495,-2.77267 1.35537,-3.53202 -4.06716,-11.93919 -7.70063,-11.93919 -2.38655,0 -2.35357,0.61795 0.24459,4.58326 4.75074,7.25054 2.3101,10.1286 -8.58923,10.1286 -8.58547,0 -10.05207,-0.64041 -15.79323,-6.89618 -3.48088,-3.79291 -11.37205,-14.34407 -17.53594,-23.44704 -6.16389,-9.10296 -13.35802,-18.88089 -15.986948,-21.72874 -4.288389,-4.64547 -4.801054,-6.72549 -4.985809,-20.22882 -0.228142,-16.6745 -5.68179,-49.0721 -8.260546,-49.0721 -0.906363,0 -1.647931,0.82754 -1.647931,1.83898 0,1.01144 -0.827543,1.83899 -1.838983,1.83899 -1.011441,0 -1.838983,-2.20301 -1.838983,-4.89558 0,-2.69256 -1.392442,-9.3129 -3.094314,-14.71186 -2.552438,-8.09727 -3.8305,-9.81629 -7.298215,-9.81629 -2.606501,0 -3.869497,-0.87348 -3.323839,-2.29873 0.484035,-1.2643 -0.219538,-6.02267 -1.563496,-10.57415 -1.708673,-5.78664 -3.373363,-8.19861 -5.535238,-8.02001 -2.603,0.21503 -3.091678,-1.61882 -3.091678,-11.60218 0,-7.43678 -0.685621,-11.43384 -1.838983,-10.72103 -2.394316,1.47977 -2.409445,-10.90808 -0.02348,-19.22745 1.313207,-4.57889 1.217828,-6.69966 -0.344737,-7.66538 -1.573212,-0.9723 -0.841188,-4.74581 2.693823,-13.88639 3.985514,-10.30547 5.242926,-17.94182 7.02732,-42.67745 1.195295,-16.56938 1.73048,-36.430398 1.1893,-44.135589 -1.641513,-23.371527 -12.503065,-44.35266 -22.960567,-44.35266 -10.317654,0 -15.166401,7.78585 -15.166401,24.353364 0,7.546068 -0.625594,9.256258 -3.677966,10.054471 -2.022881,0.528994 -3.677966,1.692835 -3.677966,2.586309 0,3.39187 -10.307605,1.520568 -13.8434214,-2.513212 C 1.1497137,63.737496 1.8588129,43.518247 8.1949464,29.723535 14.27636,16.483386 23.486664,6.7831291 30.76129,5.9567482 33.781012,5.6137146 36.063144,4.3536261 35.832692,3.1565517 35.222697,-0.01205371 47.12542,2.0972245 58.591591,7.1896499 84.201043,18.563475 96.269244,43.283114 105.18042,102.61888 c 2.11172,14.06101 4.27321,26.26726 4.80332,27.125 0.53011,0.85773 7.32844,1.54684 15.10742,1.53135 9.07988,-0.018 13.20939,-0.61946 11.53426,-1.67973 -3.81331,-2.41363 11.71237,-4.51671 33.87204,-4.58825 14.79993,-0.0478 21.62074,0.91153 34.94068,4.9142 9.10296,2.73547 21.7893,6.17639 28.19184,7.64649 10.06378,2.31078 11.50428,2.31662 10.63186,0.0432 -0.77057,-2.00811 0.71609,-2.62975 6.28909,-2.62975 4.01402,0 7.29822,-0.82755 7.29822,-1.83899 0,-1.1088 7.63881,-1.83898 19.23845,-1.83898 l 19.23843,0 2.29378,-7.81568 c 1.26156,-4.29862 2.34036,-8.73794 2.39732,-9.86516 0.057,-1.12721 1.16569,-3.32928 2.46387,-4.89348 1.43858,-1.73339 1.66487,-3.27381 0.57946,-3.94463 -1.02249,-0.63194 0.51977,-5.411896 3.62179,-11.224912 5.29849,-9.929175 5.34235,-10.238948 2.27572,-16.073688 -3.62193,-6.891317 -5.52306,-35.659675 -2.63863,-39.928791 3.64567,-5.395814 14.96281,-3.265904 27.30421,5.138712 8.82456,6.009617 12.23998,7.424034 14.72088,6.096305 1.77669,-0.950865 8.05744,-2.62118 13.95723,-3.711813 9.04506,-1.67207 12.24526,-1.470363 20.41143,1.286516 l 9.68454,3.269485 7.04009,-6.085676 c 8.11282,-7.012969 24.51031,-15.230239 30.39182,-15.230239 3.55616,0 3.88357,0.691901 2.8283,5.976695 -0.65637,3.287182 -3.74961,11.35572 -6.87386,17.930085 -7.11567,14.973568 -7.06848,22.264141 0.20974,32.398879 6.17387,8.59695 6.923,11.736714 2.80035,11.736714 -3.43223,0 -3.41619,1.73424 0.0585,6.328178 3.47716,4.59721 3.45074,8.38369 -0.0585,8.38369 -3.47498,0 -3.44984,0.74567 0.29089,8.62868 2.42692,5.11437 2.56886,6.72302 0.69534,7.88091 -1.2947,0.80018 -1.99291,2.5382 -1.55154,3.86227 0.44136,1.32407 -2.02654,4.8913 -5.48421,7.92717 -6.10031,5.35615 -6.26174,5.84987 -5.44549,16.65486 0.46265,6.1243 1.51696,12.71904 2.3429,14.65499 1.00552,2.35688 0.84873,3.11633 -0.47455,2.2985 -1.3547,-0.83726 -2.39724,7.50882 -3.31484,26.53729 -0.81159,16.83071 -1.96655,26.78534 -2.93371,25.28626 -2.25696,-3.49828 -3.47099,-1.23515 -14.72915,27.45734 -6.31613,16.09721 -10.10821,23.61405 -11.13271,22.0678 -1.16843,-1.7635 -2.482,-1.20492 -5.29682,2.2524 -15.6978,19.28102 -16.99595,20.40337 -31.73597,27.43851 -8.34122,3.9811 -17.32942,7.78138 -19.97375,8.44507 -6.41248,1.60942 -7.69658,8.97902 -5.14391,29.52127 1.09046,8.77524 1.50249,19.37201 0.91559,23.54838 -1.30588,9.2931 3.02544,32.52201 7.2729,39.00443 2.87231,4.38371 3.81637,4.65864 12.0897,3.52077 8.02586,-1.10384 9.46811,-0.74021 13.64976,3.44143 5.26488,5.26488 6.20901,13.5648 1.73819,15.28042 -1.90947,0.73273 -4.4261,-0.73553 -7.19109,-4.19543 -4.97614,-6.22675 -7.53015,-5.16874 -4.35342,1.80341 1.2136,2.66359 1.86524,5.17021 1.44809,5.57028 -0.41716,0.40007 -6.96504,1.27697 -14.55085,1.94866 -11.09644,0.98255 -14.58679,0.6488 -17.85667,-1.70751 z m 74.89332,-294.52773 c 6.9918,-2.79756 7.68462,-2.77972 11.07112,0.28502 1.98691,1.79813 3.61257,2.44179 3.61257,1.43035 0,-1.01144 -1.65508,-3.33682 -3.67796,-5.1675 -2.02288,-1.83068 -3.67797,-4.91426 -3.67797,-6.8524 0,-2.94384 -0.98623,-2.51854 -5.99152,2.58375 -3.29533,3.3592 -7.63992,7.0934 -9.65466,8.29822 -5.38432,3.21986 -0.28776,2.86607 8.31842,-0.57744 z m 9.73302,-19.16931 c 1.77247,-2.07009 2.73508,-4.55271 2.13916,-5.51695 -1.2197,-1.97352 -8.26351,-2.32763 -12.66943,-0.63691 -3.59281,1.37868 -3.83119,4.4007 -0.34717,4.4007 1.40896,0 3.03806,1.24132 3.62026,2.75848 1.43643,3.74327 3.42748,3.46745 7.25718,-1.00532 z M 380.76321,98.661441 c -2.07292,-4.804344 -4.90037,-9.637555 -6.28321,-10.740472 -3.94427,-3.1458 -19.71429,-3.044034 -23.84262,0.153867 -3.51257,2.720903 -3.46932,2.892899 1.8314,7.282046 2.98594,2.472428 9.60628,5.471788 14.71187,6.665248 5.1056,1.19346 10.52422,2.86579 12.04138,3.71628 5.08279,2.84934 5.33144,1.70757 1.54118,-7.076962 z m 26.04357,5.238849 c 0,-0.91153 2.8964,-3.36625 6.43644,-5.454928 6.59331,-3.890148 8.21134,-8.76708 4.22966,-12.748752 -3.50918,-3.509193 -6.97684,-2.568428 -7.1174,1.930932 -0.11879,3.801745 -0.2423,3.848986 -1.52174,0.58181 -0.9616,-2.455544 -1.81046,-2.879628 -2.74317,-1.37047 -1.83122,2.962973 -2.3893,18.719168 -0.66303,18.718928 0.75858,-1e-4 1.37924,-0.74598 1.37924,-1.65752 z"
     id="path3360"
     inkscape:connector-curvature="0"
     transform="translate(-0.81,-0.38999999)" /><path
     style="fill:#f9f9f9;fill-opacity:1"
     d="M 82.539807,380.94534 C 81.148456,378.6696 74.595632,368.11843 67.977974,357.49831 61.360316,346.87818 55.331668,336.12013 54.580979,333.59153 c -0.750689,-2.52861 -2.906137,-6.57103 -4.789883,-8.98318 -4.724325,-6.04951 -4.275035,-16.18513 1.109879,-25.03801 8.330222,-13.69501 13.334961,-23.87191 16.511672,-33.5757 1.740912,-5.31791 3.810681,-9.27006 4.599488,-8.78255 2.54072,1.57025 6.081027,17.21242 5.221373,23.06962 -0.760707,5.18302 -0.423522,5.63132 3.857101,5.12814 4.389009,-0.51591 4.817075,0.15825 6.656019,10.48252 1.824749,10.24459 1.656298,11.51351 -2.354803,17.73844 -5.516203,8.56073 -5.599161,14.13995 -0.452712,30.44656 4.983562,15.79049 9.074679,20.76258 17.127867,20.81613 4.74651,0.0316 6.89725,1.44221 10.96226,7.19001 2.78146,3.93291 5.0572,7.93507 5.0572,8.89368 0,0.95861 -5.08665,2.27459 -11.30366,2.9244 -18.498364,1.93346 -21.47544,1.57042 -24.242973,-2.95625 z"
     id="path3362"
     inkscape:connector-curvature="0"
     transform="translate(-0.81,-0.38999999)" /><path
     style="fill:#f9f9f9;fill-opacity:1"
     d="m 362.44749,404.78598 c -8.71192,-7.3574 -9.84865,-11.57374 -9.87041,-36.61123 l -0.0203,-23.34475 -6.43644,-6.68047 c -3.54004,-3.67425 -8.71218,-8.03642 -11.49365,-9.6937 -2.96955,-1.76935 -5.0572,-4.61661 -5.0572,-6.89731 0,-3.15101 3.35896,-5.34771 17.79698,-11.63892 20.60508,-8.97843 20.79699,-8.91824 27.88372,8.74555 4.77936,11.91265 4.86799,15.26953 0.89167,33.77358 -2.83601,13.19755 -2.84624,14.82433 -0.12904,20.52235 1.62312,3.40372 6.52625,8.58518 10.89585,11.51435 7.99709,5.36087 11.06486,12.01545 7.28272,15.79758 -1.29785,1.29786 -2.27064,0.38777 -3.0946,-2.89514 -0.66094,-2.63341 -2.3319,-5.726 -3.71325,-6.87241 -2.08623,-1.73142 -2.32919,-0.54478 -1.43473,7.00749 0.99869,8.43237 0.76042,9.17655 -3.28473,10.25927 -8.12048,2.1735 -15.37598,1.10177 -20.21659,-2.98624 z"
     id="path3364"
     inkscape:connector-curvature="0"
     transform="translate(-0.81,-0.38999999)" /></svg>