<svg id="barcodes-1d-svg" width="64" height="64" viewBox="0 0 1792 1792" xmlns="http://www.w3.org/2000/svg">
  <path d="M 146.3,1529.6 H 89.6 V 262.4 h 56.7 v 1267.2 z m 56.7,-0.9 H 174.2 V 262.4 H 203 v 1266.3 z m 84.6,0 H 259.7 V 262.4 h 27.9 v 1266.3 z m 141.3,0 H 401 V 262.4 h 27.9 v 1266.3 z m 141.3,0 H 514.4 V 262.4 h 55.8 v 1266.3 z m 113.4,0 H 655.7 V 262.4 h 27.9 v 1266.3 z m 56.7,0 H 712.4 V 262.4 h 27.9 v 1266.3 z m 56.7,0 H 769.1 V 262.4 H 797 v 1266.3 z m 141.3,0 H 881.6 V 262.4 h 56.7 v 1266.3 z m 141.3,0 h -56.7 V 262.4 h 56.7 v 1266.3 z m 113.4,0 h -56.7 V 262.4 h 56.7 v 1266.3 z m 113.4,0 h -56.7 V 262.4 h 56.7 v 1266.3 z m 84.6,0 h -56.7 V 262.4 h 56.7 v 1266.3 z m 170.1,0 h -84.6 V 262.4 h 84.6 v 1266.3 z m 56.7,0 H 1589 V 262.4 h 28.8 v 1266.3 z m 84.6,0.9 h -56.7 V 262.4 h 56.7 v 1267.2 z" id="path3" />
</svg>