<svg id="calculator-svg" width="64" height="64" viewBox="0 0 1792 1792" xmlns="http://www.w3.org/2000/svg">
  <path d="m 492.8,1472 q 0,-47.7 -33.75,-81.45 -33.75,-33.75 -81.45,-33.75 -47.7,0 -81.45,33.75 -33.75,33.75 -33.75,81.45 0,47.7 33.75,81.45 33.75,33.75 81.45,33.75 47.7,0 81.45,-33.75 33.75,-33.75 33.75,-81.45 z m 345.6,0 q 0,-47.7 -33.75,-81.45 -33.75,-33.75 -81.45,-33.75 -47.7,0 -81.45,33.75 Q 608,1424.3 608,1472 q 0,47.7 33.75,81.45 33.75,33.75 81.45,33.75 47.7,0 81.45,-33.75 Q 838.4,1519.7 838.4,1472 z M 492.8,1126.4 q 0,-47.7 -33.75,-81.45 -33.75,-33.75 -81.45,-33.75 -47.7,0 -81.45,33.75 -33.75,33.75 -33.75,81.45 0,47.7 33.75,81.45 33.75,33.75 81.45,33.75 47.7,0 81.45,-33.75 33.75,-33.75 33.75,-81.45 z M 1184,1472 q 0,-47.7 -33.75,-81.45 -33.75,-33.75 -81.45,-33.75 -47.7,0 -81.45,33.75 -33.75,33.75 -33.75,81.45 0,47.7 33.75,81.45 33.75,33.75 81.45,33.75 47.7,0 81.45,-33.75 Q 1184,1519.7 1184,1472 z M 838.4,1126.4 q 0,-47.7 -33.75,-81.45 -33.75,-33.75 -81.45,-33.75 -47.7,0 -81.45,33.75 -33.75,33.75 -33.75,81.45 0,47.7 33.75,81.45 33.75,33.75 81.45,33.75 47.7,0 81.45,-33.75 33.75,-33.75 33.75,-81.45 z M 492.8,780.8 q 0,-47.7 -33.75,-81.45 -33.75,-33.75 -81.45,-33.75 -47.7,0 -81.45,33.75 -33.75,33.75 -33.75,81.45 0,47.7 33.75,81.45 33.75,33.75 81.45,33.75 47.7,0 81.45,-33.75 33.75,-33.75 33.75,-81.45 z m 691.2,345.6 q 0,-47.7 -33.75,-81.45 -33.75,-33.75 -81.45,-33.75 -47.7,0 -81.45,33.75 -33.75,33.75 -33.75,81.45 0,47.7 33.75,81.45 33.75,33.75 81.45,33.75 47.7,0 81.45,-33.75 Q 1184,1174.1 1184,1126.4 z M 838.4,780.8 q 0,-47.7 -33.75,-81.45 -33.75,-33.75 -81.45,-33.75 -47.7,0 -81.45,33.75 Q 608,733.1 608,780.8 q 0,47.7 33.75,81.45 33.75,33.75 81.45,33.75 47.7,0 81.45,-33.75 33.75,-33.75 33.75,-81.45 z m 691.2,691.2 v -345.6 q 0,-46.8 -34.2,-81 -34.2,-34.2 -81,-34.2 -46.8,0 -81,34.2 -34.2,34.2 -34.2,81 V 1472 q 0,46.8 34.2,81 34.2,34.2 81,34.2 46.8,0 81,-34.2 34.2,-34.2 34.2,-81 z M 1184,780.8 q 0,-47.7 -33.75,-81.45 -33.75,-33.75 -81.45,-33.75 -47.7,0 -81.45,33.75 -33.75,33.75 -33.75,81.45 0,47.7 33.75,81.45 33.75,33.75 81.45,33.75 47.7,0 81.45,-33.75 Q 1184,828.5 1184,780.8 z m 345.6,-288 V 262.4 q 0,-23.4 -17.1,-40.5 -17.1,-17.1 -40.5,-17.1 H 320 q -23.4,0 -40.5,17.1 -17.1,17.1 -17.1,40.5 v 230.4 q 0,23.4 17.1,40.5 17.1,17.1 40.5,17.1 h 1152 q 23.4,0 40.5,-17.1 17.1,-17.1 17.1,-40.5 z m 0,288 q 0,-47.7 -33.75,-81.45 -33.75,-33.75 -81.45,-33.75 -47.7,0 -81.45,33.75 -33.75,33.75 -33.75,81.45 0,47.7 33.75,81.45 33.75,33.75 81.45,33.75 47.7,0 81.45,-33.75 33.75,-33.75 33.75,-81.45 z m 115.2,-576 v 1382.4 q 0,46.8 -34.2,81 -34.2,34.2 -81,34.2 H 262.4 q -46.8,0 -81,-34.2 -34.2,-34.2 -34.2,-81 V 204.8 q 0,-46.8 34.2,-81 34.2,-34.2 81,-34.2 h 1267.2 q 46.8,0 81,34.2 34.2,34.2 34.2,81 z" id="path3" />
</svg>