<svg id="chart-line-svg" width="64" height="64" viewBox="0 0 1792 1792" xmlns="http://www.w3.org/2000/svg">
  <path d="m 1715.2,1408 v 102.4 H 76.8 V 281.6 H 179.2 V 1408 h 1536 z M 1612.8,409.6 v 348 q 0,16.8 -15.6,23.6 -15.6,6.8 -28.4,-6 L 1472,678.4 965.6,1184.8 q -8,8 -18.4,8 -10.4,0 -18.4,-8 L 742.4,998.4 409.6,1331.2 256,1177.6 724,709.6 q 8,-8 18.4,-8 10.4,0 18.4,8 L 947.2,896 1318.4,524.8 1221.6,428 q -12.8,-12.8 -6,-28.4 6.8,-15.6 23.6,-15.6 h 348 q 11.2,0 18.4,7.2 7.2,7.2 7.2,18.4 z" id="path3" />
</svg>