<svg id="cloud-download-svg" width="64" height="64" viewBox="0 0 1792 1792" xmlns="http://www.w3.org/2000/svg">
  <path d="m 1184,982.4 q 0,-12.6 -8.1,-20.7 -8.1,-8.1 -20.7,-8.1 H 953.6 V 636.8 q 0,-11.7 -8.55,-20.25 Q 936.5,608 924.8,608 H 752 q -11.7,0 -20.25,8.55 -8.55,8.55 -8.55,20.25 V 953.6 H 521.6 q -11.7,0 -20.25,8.55 -8.55,8.55 -8.55,20.25 0,12.6 8.1,20.7 l 316.8,316.8 q 8.1,8.1 20.7,8.1 12.6,0 20.7,-8.1 L 1175,1004 q 9,-10.8 9,-21.6 z m 576,201.6 q 0,143.1 -101.25,244.35 Q 1557.5,1529.6 1414.4,1529.6 H 435.2 q -166.5,0 -284.85,-118.35 Q 32,1292.9 32,1126.4 q 0,-117 63,-216 63,-99 169.2,-148.5 -1.8,-27 -1.8,-38.7 0,-190.8 135,-325.8 135,-135 325.8,-135 140.4,0 256.95,78.3 116.55,78.3 169.65,207.9 63.9,-55.8 149.4,-55.8 95.4,0 162.9,67.5 67.5,67.5 67.5,162.9 0,68.4 -36.9,124.2 117,27.9 192.15,121.95 Q 1760,1063.4 1760,1184 z" id="path3" />
</svg>