<svg id="cloud-svg" width="64" height="64" viewBox="0 0 1792 1792" xmlns="http://www.w3.org/2000/svg">
  <path d="m 1760,1184 q 0,143.1 -101.25,244.35 Q 1557.5,1529.6 1414.4,1529.6 H 435.2 q -166.5,0 -284.85,-118.35 Q 32,1292.9 32,1126.4 32,1007.6 95.9,909.05 159.8,810.5 264.2,761.9 q -1.8,-25.2 -1.8,-38.7 0,-190.8 135,-325.8 135,-135 325.8,-135 142.2,0 257.85,79.2 115.65,79.2 168.75,207 63,-55.8 149.4,-55.8 95.4,0 162.9,67.5 67.5,67.5 67.5,162.9 0,67.5 -36.9,124.2 116.1,27 191.7,121.05 75.6,94.05 75.6,215.55 z" id="path3" />
</svg>