<svg id="crypto-svg" width="64" height="64" viewBox="0 0 1792 1792" xmlns="http://www.w3.org/2000/svg">
  <path d="m 614.4,825.6 h 563.2 V 614.4 q 0,-116.6 -82.5,-199.1 -82.5,-82.5 -199.1,-82.5 -116.6,0 -199.1,82.5 -82.5,82.5 -82.5,199.1 v 211.2 z m 915.2,105.6 v 633.6 q 0,44 -30.8,74.8 -30.8,30.8 -74.8,30.8 H 368 q -44,0 -74.8,-30.8 -30.8,-30.8 -30.8,-74.8 V 931.2 q 0,-44 30.8,-74.8 30.8,-30.8 74.8,-30.8 h 35.2 V 614.4 Q 403.2,412 548.4,266.8 693.6,121.6 896,121.6 q 202.4,0 347.6,145.2 145.2,145.2 145.2,347.6 v 211.2 h 35.2 q 44,0 74.8,30.8 30.8,30.8 30.8,74.8 z" id="path3" />
</svg>