<svg id="db-svg" width="64" height="64" viewBox="0 0 1792 1792" xmlns="http://www.w3.org/2000/svg">
  <path d="m 896,780.8 q 213.3,0 398.7,-38.7 185.4,-38.7 292.5,-114.3 v 153 q 0,62.1 -92.7,115.2 -92.7,53.1 -252,84.15 -159.3,31.05 -346.5,31.05 -187.2,0 -346.5,-31.05 Q 390.2,949.1 297.5,896 204.8,842.9 204.8,780.8 v -153 q 107.1,75.6 292.5,114.3 185.4,38.7 398.7,38.7 z m 0,691.2 q 213.3,0 398.7,-38.7 185.4,-38.7 292.5,-114.3 v 153 q 0,62.1 -92.7,115.2 -92.7,53.1 -252,84.15 -159.3,31.05 -346.5,31.05 -187.2,0 -346.5,-31.05 -159.3,-31.05 -252,-84.15 -92.7,-53.1 -92.7,-115.2 v -153 q 107.1,75.6 292.5,114.3 185.4,38.7 398.7,38.7 z m 0,-345.6 q 213.3,0 398.7,-38.7 185.4,-38.7 292.5,-114.3 v 153 q 0,62.1 -92.7,115.2 -92.7,53.1 -252,84.15 -159.3,31.05 -346.5,31.05 -187.2,0 -346.5,-31.05 -159.3,-31.05 -252,-84.15 -92.7,-53.1 -92.7,-115.2 v -153 q 107.1,75.6 292.5,114.3 185.4,38.7 398.7,38.7 z M 896,89.6 q 187.2,0 346.5,31.05 159.3,31.05 252,84.15 92.7,53.1 92.7,115.2 v 115.2 q 0,62.1 -92.7,115.2 -92.7,53.1 -252,84.15 Q 1083.2,665.6 896,665.6 708.8,665.6 549.5,634.55 390.2,603.5 297.5,550.4 204.8,497.3 204.8,435.2 V 320 q 0,-62.1 92.7,-115.2 92.7,-53.1 252,-84.15 Q 708.8,89.6 896,89.6 z" id="path3" />
</svg>