<svg id="folder-svg" width="64" height="64" viewBox="0 0 1792 1792" xmlns="http://www.w3.org/2000/svg">
  <path d="m 1741.55,1004 q 0,27.9 -27.9,59.4 l -302.4,356.4 q -38.7,45.9 -108.45,77.85 -69.75,31.95 -129.15,31.95 h -979.2 q -30.6,0 -54.45,-11.7 -23.85,-11.7 -23.85,-38.7 0,-27.9 27.9,-59.4 l 302.4,-356.4 q 38.7,-45.9 108.45,-77.85 69.75,-31.95 129.15,-31.95 h 979.2 q 30.6,0 54.45,11.7 23.85,11.7 23.85,38.7 z m -308.7,-309.6 v 144 h -748.8 q -84.6,0 -177.3,42.75 -92.7,42.75 -147.6,107.55 l -303.3,356.4 -4.5,5.4 q 0,-3.6 -0.45,-11.25 -0.45,-7.65 -0.45,-11.25 V 464 q 0,-82.8 59.4,-142.2 59.4,-59.4 142.2,-59.4 h 288 q 82.8,0 142.2,59.4 59.4,59.4 59.4,142.2 v 28.8 h 489.6 q 82.8,0 142.2,59.4 59.4,59.4 59.4,142.2 z" id="path3" />
</svg>