<svg id="keyboard-svg" width="64" height="64" viewBox="0 0 1792 1792" xmlns="http://www.w3.org/2000/svg">
  <path d="m 377.6,1083.2 v 86.4 q 0,14.4 -14.4,14.4 h -86.4 q -14.4,0 -14.4,-14.4 v -86.4 q 0,-14.4 14.4,-14.4 h 86.4 q 14.4,0 14.4,14.4 z M 492.8,852.8 v 86.4 q 0,14.4 -14.4,14.4 H 276.8 q -14.4,0 -14.4,-14.4 v -86.4 q 0,-14.4 14.4,-14.4 h 201.6 q 14.4,0 14.4,14.4 z M 377.6,622.4 v 86.4 q 0,14.4 -14.4,14.4 h -86.4 q -14.4,0 -14.4,-14.4 v -86.4 q 0,-14.4 14.4,-14.4 h 86.4 q 14.4,0 14.4,14.4 z m 921.6,460.8 v 86.4 q 0,14.4 -14.4,14.4 H 507.2 q -14.4,0 -14.4,-14.4 v -86.4 q 0,-14.4 14.4,-14.4 h 777.6 q 14.4,0 14.4,14.4 z m -576,-230.4 v 86.4 q 0,14.4 -14.4,14.4 h -86.4 q -14.4,0 -14.4,-14.4 v -86.4 q 0,-14.4 14.4,-14.4 h 86.4 q 14.4,0 14.4,14.4 z M 608,622.4 v 86.4 q 0,14.4 -14.4,14.4 h -86.4 q -14.4,0 -14.4,-14.4 v -86.4 q 0,-14.4 14.4,-14.4 h 86.4 q 14.4,0 14.4,14.4 z m 345.6,230.4 v 86.4 q 0,14.4 -14.4,14.4 h -86.4 q -14.4,0 -14.4,-14.4 v -86.4 q 0,-14.4 14.4,-14.4 h 86.4 q 14.4,0 14.4,14.4 z M 838.4,622.4 v 86.4 q 0,14.4 -14.4,14.4 h -86.4 q -14.4,0 -14.4,-14.4 v -86.4 q 0,-14.4 14.4,-14.4 H 824 q 14.4,0 14.4,14.4 z M 1184,852.8 v 86.4 q 0,14.4 -14.4,14.4 h -86.4 q -14.4,0 -14.4,-14.4 v -86.4 q 0,-14.4 14.4,-14.4 h 86.4 q 14.4,0 14.4,14.4 z m 345.6,230.4 v 86.4 q 0,14.4 -14.4,14.4 h -86.4 q -14.4,0 -14.4,-14.4 v -86.4 q 0,-14.4 14.4,-14.4 h 86.4 q 14.4,0 14.4,14.4 z M 1068.8,622.4 v 86.4 q 0,14.4 -14.4,14.4 H 968 q -14.4,0 -14.4,-14.4 V 622.4 Q 953.6,608 968,608 h 86.4 q 14.4,0 14.4,14.4 z m 230.4,0 v 86.4 q 0,14.4 -14.4,14.4 h -86.4 q -14.4,0 -14.4,-14.4 v -86.4 q 0,-14.4 14.4,-14.4 h 86.4 q 14.4,0 14.4,14.4 z m 230.4,0 v 316.8 q 0,14.4 -14.4,14.4 h -201.6 q -14.4,0 -14.4,-14.4 v -86.4 q 0,-14.4 14.4,-14.4 h 100.8 v -216 q 0,-14.4 14.4,-14.4 h 86.4 q 14.4,0 14.4,14.4 z m 115.2,676.8 V 492.8 H 147.2 v 806.4 H 1644.8 z M 1760,492.8 v 806.4 q 0,47.7 -33.75,81.45 -33.75,33.75 -81.45,33.75 H 147.2 q -47.7,0 -81.45,-33.75 Q 32,1346.9 32,1299.2 V 492.8 Q 32,445.1 65.75,411.35 99.5,377.6 147.2,377.6 h 1497.6 q 47.7,0 81.45,33.75 33.75,33.75 33.75,81.45 z" id="path3" />
</svg>