<svg id="map-blank-svg" width="64" height="64" viewBox="0 0 1792 1792" xmlns="http://www.w3.org/2000/svg">
  <path d="m 1692.8,188 q 22.4,16 22.4,42.4 v 1126.4 q 0,16 -8.8,28.8 -8.8,12.8 -23.2,18.4 l -512,204.8 q -19.2,8.8 -38.4,0 L 640,1412 147.2,1608.8 q -8,4 -19.2,4 -15.2,0 -28.8,-8.8 -22.4,-16 -22.4,-42.4 V 435.2 q 0,-16 8.8,-28.8 8.8,-12.8 23.2,-18.4 l 512,-204.8 q 19.2,-8.8 38.4,0 L 1152,380 1644.8,183.2 q 25.6,-10.4 48,4.8 z M 665.6,296 v 1016 l 460.8,184 V 480 z M 179.2,469.6 v 1016 L 614.4,1312 V 296 z m 1433.6,852.8 V 306.4 L 1177.6,480 v 1016 z" id="path3" />
</svg>