<svg id="map-pin-svg" width="64" height="64" viewBox="0 0 1792 1792" xmlns="http://www.w3.org/2000/svg">
  <path d="m 896,1068.8 q 59.4,0 115.2,-13.5 v 589.5 q 0,23.4 -17.1,40.5 -17.1,17.1 -40.5,17.1 H 838.4 q -23.4,0 -40.5,-17.1 -17.1,-17.1 -17.1,-40.5 v -589.5 q 54.9,13.5 115.2,13.5 z m 0,-979.2 q 190.8,0 325.8,135 135,135 135,325.8 0,190.8 -135,325.8 -135,135 -325.8,135 -190.8,0 -325.8,-135 -135,-135 -135,-325.8 0,-190.8 135,-325.8 135,-135 325.8,-135 z m 0,201.6 q 12.6,0 20.7,-8.1 8.1,-8.1 8.1,-20.7 0,-12.6 -8.1,-20.7 -8.1,-8.1 -20.7,-8.1 -131.4,0 -224.1,92.7 -92.7,92.7 -92.7,224.1 0,12.6 8.1,20.7 8.1,8.1 20.7,8.1 12.6,0 20.7,-8.1 8.1,-8.1 8.1,-20.7 0,-107.1 76.05,-183.15 Q 788.9,291.2 896,291.2 z" id="path3" />
</svg>