<svg id="map-svg" width="64" height="64" viewBox="0 0 1792 1792" xmlns="http://www.w3.org/2000/svg">
  <path d="m 550.4,89.6 q 11.7,0 20.25,8.55 8.55,8.55 8.55,20.25 v 1324.8 q 0,18 -15.3,25.2 l -432,230.4 q -6.3,3.6 -13.5,3.6 -11.7,0 -20.25,-8.55 -8.55,-8.55 -8.55,-20.25 V 348.8 q 0,-18 15.3,-25.2 l 432,-230.4 q 6.3,-3.6 13.5,-3.6 z m 1123.2,0 q 11.7,0 20.25,8.55 8.55,8.55 8.55,20.25 v 1324.8 q 0,18 -15.3,25.2 l -432,230.4 q -6.3,3.6 -13.5,3.6 -11.7,0 -20.25,-8.55 -8.55,-8.55 -8.55,-20.25 V 348.8 q 0,-18 15.3,-25.2 l 432,-230.4 q 6.3,-3.6 13.5,-3.6 z m -1008,0 q 7.2,0 12.6,2.7 L 1139,322.7 q 16.2,9 16.2,26.1 v 1324.8 q 0,11.7 -8.55,20.25 -8.55,8.55 -20.25,8.55 -7.2,0 -12.6,-2.7 L 653,1469.3 q -16.2,-9 -16.2,-26.1 V 118.4 q 0,-11.7 8.55,-20.25 8.55,-8.55 20.25,-8.55 z" id="path3" />
</svg>