<svg id="message-svg" width="64" height="64" viewBox="0 0 1792 1792" xmlns="http://www.w3.org/2000/svg">
  <path d="m 1702.4,671 v 714.6 q 0,59.4 -42.3,101.7 -42.3,42.3 -101.7,42.3 H 233.6 q -59.4,0 -101.7,-42.3 Q 89.6,1445 89.6,1385.6 V 671 q 39.6,44.1 90.9,78.3 325.8,221.4 447.3,310.5 51.3,37.8 83.25,58.95 31.95,21.15 85.05,43.2 53.1,22.05 99,22.05 h 1.8 q 45.9,0 99,-22.05 53.1,-22.05 85.05,-43.2 31.95,-21.15 83.25,-58.95 153,-110.7 448.2,-310.5 51.3,-35.1 90,-78.3 z m 0,-264.6 q 0,71.1 -44.1,135.9 -44.1,64.8 -109.8,110.7 -338.4,234.9 -421.2,292.5 -9,6.3 -38.25,27.45 -29.25,21.15 -48.6,34.2 -19.35,13.05 -46.8,29.25 -27.45,16.2 -51.75,24.3 -24.3,8.1 -45,8.1 h -1.8 q -20.7,0 -45,-8.1 -24.3,-8.1 -51.75,-24.3 -27.45,-16.2 -46.8,-29.25 Q 732.2,994.1 702.95,972.95 673.7,951.8 664.7,945.5 582.8,887.9 428.9,781.25 275,674.6 244.4,653 188.6,615.2 139.1,549.05 89.6,482.9 89.6,426.2 q 0,-70.2 37.35,-117 37.35,-46.8 106.65,-46.8 h 1324.8 q 58.5,0 101.25,42.3 42.75,42.3 42.75,101.7 z" id="path3" />
</svg>