<svg id="message-alt-svg" width="64" height="64" viewBox="0 0 1792 1792" xmlns="http://www.w3.org/2000/svg">
  <path d="M 1587.2,1385.6 V 694.4 q -28.8,32.4 -62.1,59.4 -241.2,185.4 -383.4,304.2 -45.9,38.7 -74.7,60.3 -28.8,21.6 -77.85,43.65 Q 940.1,1184 896.9,1184 h -1.8 q -43.2,0 -92.25,-22.05 Q 753.8,1139.9 725,1118.3 696.2,1096.7 650.3,1058 508.1,939.2 266.9,753.8 q -33.3,-27 -62.1,-59.4 v 691.2 q 0,11.7 8.55,20.25 8.55,8.55 20.25,8.55 h 1324.8 q 11.7,0 20.25,-8.55 8.55,-8.55 8.55,-20.25 z m 0,-945.9 v -22.05 l -0.45,-11.7 -2.7,-11.25 -4.95,-8.1 -8.1,-6.75 -12.6,-2.25 H 233.6 q -11.7,0 -20.25,8.55 -8.55,8.55 -8.55,20.25 0,151.2 132.3,255.6 173.7,136.8 360.9,285.3 5.4,4.5 31.5,26.55 26.1,22.05 41.4,33.75 15.3,11.7 40.05,28.35 24.75,16.65 45.45,24.75 20.7,8.1 38.7,8.1 h 1.8 q 18,0 38.7,-8.1 20.7,-8.1 45.45,-24.75 24.75,-16.65 40.05,-28.35 15.3,-11.7 41.4,-33.75 26.1,-22.05 31.5,-26.55 187.2,-148.5 360.9,-285.3 48.6,-38.7 90.45,-103.95 41.85,-65.25 41.85,-118.35 z m 115.2,-33.3 v 979.2 q 0,59.4 -42.3,101.7 -42.3,42.3 -101.7,42.3 H 233.6 q -59.4,0 -101.7,-42.3 Q 89.6,1445 89.6,1385.6 V 406.4 q 0,-59.4 42.3,-101.7 42.3,-42.3 101.7,-42.3 h 1324.8 q 59.4,0 101.7,42.3 42.3,42.3 42.3,101.7 z" id="path3" />
</svg>