<svg id="photo-svg" width="64" height="64" viewBox="0 0 1792 1792" xmlns="http://www.w3.org/2000/svg">
  <path d="m 608,608 q 0,72 -50.4,122.4 -50.4,50.4 -122.4,50.4 -72,0 -122.4,-50.4 Q 262.4,680 262.4,608 q 0,-72 50.4,-122.4 50.4,-50.4 122.4,-50.4 72,0 122.4,50.4 Q 608,536 608,608 z m 921.6,345.6 v 403.2 H 262.4 V 1184 l 288,-288 144,144 460.8,-460.8 z M 1616,320 H 176 q -11.7,0 -20.25,8.55 -8.55,8.55 -8.55,20.25 v 1094.4 q 0,11.7 8.55,20.25 8.55,8.55 20.25,8.55 h 1440 q 11.7,0 20.25,-8.55 8.55,-8.55 8.55,-20.25 V 348.8 q 0,-11.7 -8.55,-20.25 Q 1627.7,320 1616,320 z m 144,28.8 v 1094.4 q 0,59.4 -42.3,101.7 -42.3,42.3 -101.7,42.3 H 176 q -59.4,0 -101.7,-42.3 Q 32,1502.6 32,1443.2 V 348.8 Q 32,289.4 74.3,247.1 116.6,204.8 176,204.8 h 1440 q 59.4,0 101.7,42.3 42.3,42.3 42.3,101.7 z" id="path3" />
</svg>