<svg id="send-svg" width="64" height="64" viewBox="0 0 1792 1792" xmlns="http://www.w3.org/2000/svg">
  <path d="m 1677.2846,99.5 q 29.7,21.6 24.3,57.6 l -230.4,1382.4 q -4.5,26.1 -28.8,40.5 -12.6,7.2 -27.9,7.2 -9.9,0 -21.6,-4.5 l -407.69998,-166.5 -217.8,265.5 q -16.2,20.7 -44.1,20.7 -11.7,0 -19.8,-3.6 -17.1,-6.3 -27.45,-21.15 -10.35,-14.85 -10.35,-32.85 v -314.1 l 777.59998,-953.1 -962.09998,832.5 -355.5,-145.8 q -33.300006,-12.6 -36.000006,-49.5 -1.8,-36 28.800006,-53.1 L 1616.0846,97.7 q 13.5,-8.1 28.8,-8.1 18,0 32.4,9.9 z" id="path3" />
</svg>