<svg id="templating-svg" width="64" height="64" viewBox="0 0 1792 1792" xmlns="http://www.w3.org/2000/svg">
  <path d="m 953.6,319.2 q 0,-23.4 -17.1,-40.5 -17.1,-17.1 -40.5,-17.1 -23.4,0 -40.5,17.1 -17.1,17.1 -17.1,40.5 0,23.4 17.1,40.5 17.1,17.1 40.5,17.1 23.4,0 40.5,-17.1 17.1,-17.1 17.1,-40.5 z m 748.8,835.2 v 316.8 q 0,19.8 -18,27 -7.2,1.8 -10.8,1.8 -11.7,0 -20.7,-8.1 l -83.7,-83.7 Q 1462.1,1536.9 1282.55,1612.05 1103,1687.2 896,1687.2 689,1687.2 509.45,1612.05 329.9,1536.9 222.8,1408.2 l -83.7,83.7 q -8.1,8.1 -20.7,8.1 -3.6,0 -10.8,-1.8 -18,-7.2 -18,-27 v -316.8 q 0,-12.6 8.1,-20.7 8.1,-8.1 20.7,-8.1 h 316.8 q 19.8,0 27,18 7.2,17.1 -6.3,31.5 l -90,90 q 60.3,81.9 170.55,138.15 110.25,56.25 244.35,74.25 V 895.2 H 608 q -23.4,0 -40.5,-17.1 Q 550.4,861 550.4,837.6 V 722.4 q 0,-23.4 17.1,-40.5 17.1,-17.1 40.5,-17.1 H 780.8 V 518.1 Q 728.6,487.5 697.1,434.85 665.6,382.2 665.6,319.2 q 0,-95.4 67.5,-162.9 67.5,-67.5 162.9,-67.5 95.4,0 162.9,67.5 67.5,67.5 67.5,162.9 0,63 -31.5,115.65 -31.5,52.65 -83.7,83.25 V 664.8 H 1184 q 23.4,0 40.5,17.1 17.1,17.1 17.1,40.5 v 115.2 q 0,23.4 -17.1,40.5 -17.1,17.1 -40.5,17.1 h -172.8 v 582.3 q 134.1,-18 244.35,-74.25 Q 1365.8,1347 1426.1,1265.1 l -90,-90 q -13.5,-14.4 -6.3,-31.5 7.2,-18 27,-18 h 316.8 q 12.6,0 20.7,8.1 8.1,8.1 8.1,20.7 z" id="path3" />
</svg>