<svg id="ui-ux-svg" width="64" height="64" viewBox="0 0 1792 1792" xmlns="http://www.w3.org/2000/svg">
  <path d="m 1644.8,1212.8 v -864 q 0,-11.7 -8.55,-20.25 Q 1627.7,320 1616,320 H 176 q -11.7,0 -20.25,8.55 -8.55,8.55 -8.55,20.25 v 864 q 0,11.7 8.55,20.25 8.55,8.55 20.25,8.55 h 1440 q 11.7,0 20.25,-8.55 8.55,-8.55 8.55,-20.25 z m 115.2,-864 v 864 q 0,59.4 -42.3,101.7 -42.3,42.3 -101.7,42.3 H 953.6 V 1472 h 316.8 q 12.6,0 20.7,8.1 8.1,8.1 8.1,20.7 v 57.6 q 0,12.6 -8.1,20.7 -8.1,8.1 -20.7,8.1 H 521.6 q -12.6,0 -20.7,-8.1 -8.1,-8.1 -8.1,-20.7 v -57.6 q 0,-12.6 8.1,-20.7 8.1,-8.1 20.7,-8.1 H 838.4 V 1356.8 H 176 q -59.4,0 -101.7,-42.3 Q 32,1272.2 32,1212.8 v -864 Q 32,289.4 74.3,247.1 116.6,204.8 176,204.8 h 1440 q 59.4,0 101.7,42.3 42.3,42.3 42.3,101.7 z" id="path3" />
</svg>