<svg id="ui-svg" width="64" height="64" viewBox="0 0 1792 1792" xmlns="http://www.w3.org/2000/svg">
  <path d="M 1644.8,1040 V 291.2 q 0,-11.7 -8.55,-20.25 -8.55,-8.55 -20.25,-8.55 H 176 q -11.7,0 -20.25,8.55 -8.55,8.55 -8.55,20.25 V 1040 q 0,11.7 8.55,20.25 8.55,8.55 20.25,8.55 h 1440 q 11.7,0 20.25,-8.55 8.55,-8.55 8.55,-20.25 z M 1760,291.2 v 979.2 q 0,59.4 -42.3,101.7 -42.3,42.3 -101.7,42.3 h -489.6 q 0,33.3 14.4,69.75 14.4,36.45 28.8,63.9 14.4,27.45 14.4,39.15 0,23.4 -17.1,40.5 -17.1,17.1 -40.5,17.1 H 665.6 q -23.4,0 -40.5,-17.1 -17.1,-17.1 -17.1,-40.5 0,-12.6 14.4,-39.6 14.4,-27 28.8,-63 14.4,-36 14.4,-70.2 H 176 q -59.4,0 -101.7,-42.3 Q 32,1329.8 32,1270.4 V 291.2 Q 32,231.8 74.3,189.5 116.6,147.2 176,147.2 h 1440 q 59.4,0 101.7,42.3 42.3,42.3 42.3,101.7 z" id="path3" />
</svg>