<svg id="videocam-svg" width="64" height="64" viewBox="0 0 1792 1792" xmlns="http://www.w3.org/2000/svg">
  <path d="m 1702.4,406.4 v 979.2 q 0,37.8 -35.1,53.1 -11.7,4.5 -22.5,4.5 -24.3,0 -40.5,-17.1 l -362.7,-362.7 v 149.4 q 0,107.1 -76.05,183.15 Q 1089.5,1472 982.4,1472 H 348.8 Q 241.7,1472 165.65,1395.95 89.6,1319.9 89.6,1212.8 V 579.2 Q 89.6,472.1 165.65,396.05 241.7,320 348.8,320 h 633.6 q 107.1,0 183.15,76.05 76.05,76.05 76.05,183.15 v 148.5 l 362.7,-361.8 q 16.2,-17.1 40.5,-17.1 10.8,0 22.5,4.5 35.1,15.3 35.1,53.1 z" id="path4" />
</svg>